REM MD5 d40951eb09316c69ec0f6505d0cc14c6
FILE "Euro Demo 78 (Europe).bin" BINARY
  TRACK 01 MODE2/2352
    INDEX 01 00:00:00
  TRACK 02 AUDIO
    INDEX 00 51:27:05
    INDEX 01 51:29:05
  TRACK 03 AUDIO
    INDEX 00 55:40:53
    INDEX 01 55:42:53
REM LEADOUT 58:44:10
